<!-- <svg xmlns="http://www.w3.org/2000/svg" fill="none" viewBox="0 0 128 128">
    <path d="M50.4 78.5a75.1 75.1 0 0 0-28.5 6.9l24.2-65.7c.7-2 1.9-3.2 3.4-3.2h29c1.5 0 2.7 1.2 3.4 3.2l24.2 65.7s-11.6-7-28.5-7L67 45.5c-.4-1.7-1.6-2.8-2.9-2.8-1.3 0-2.5 1.1-2.9 2.7L50.4 78.5Zm-1.1 28.2Zm-4.2-20.2c-2 6.6-.6 15.8 4.2 20.2a17.5 17.5 0 0 1 .2-.7 5.5 5.5 0 0 1 5.7-4.5c2.8.1 4.3 1.5 4.7 4.7.2 1.1.2 2.3.2 3.5v.4c0 2.7.7 5.2 2.2 7.4a13 13 0 0 0 5.7 4.9v-.3l-.2-.3c-1.8-5.6-.5-9.5 4.4-12.8l1.5-1a73 73 0 0 0 3.2-2.2 16 16 0 0 0 6.8-11.4c.3-2 .1-4-.6-6l-.8.6-1.6 1a37 37 0 0 1-22.4 2.7c-5-.7-9.7-2-13.2-6.2Z" />

</svg> -->

<svg height="800px" width="800px" version="1.1" id="_x36_" xmlns="http://www.w3.org/2000/svg" xmlns:xlink="http://www.w3.org/1999/xlink" 
	 viewBox="0 0 512 512"  xml:space="preserve">
<g>
	<g>
		<path style="fill:#FBEEE2;" d="M253.928,0C86.195,0,0,134.658,0,274.901c0,52.588,8.67,99.041,37.278,121.14
			c24.494,18.93,78.268,47.376,78.268,92.561v9.211c0,7.837,6.358,14.188,14.195,14.188h34.046c7.841,0,14.188-6.351,14.188-14.188
			v-39.285c3.302-1.921,6.339-3.627,9.054-5.024c0,0.11-0.031,0.211-0.031,0.324v43.984c0,7.837,6.339,14.188,14.18,14.188h34.049
			c7.841,0,14.204-6.351,14.204-14.188v-43.984c0-1.428-0.282-2.774-0.681-4.073h10.353c-0.391,1.299-0.673,2.645-0.673,4.073
			v43.984c0,7.837,6.363,14.188,14.204,14.188h34.049c7.841,0,14.18-6.351,14.18-14.188v-43.984c0-0.113-0.031-0.215-0.031-0.324
			c2.716,1.397,5.752,3.103,9.054,5.024v39.285c0,7.837,6.347,14.188,14.18,14.188h34.073c7.818,0,14.18-6.351,14.18-14.188v-9.211
			c0-45.185,53.77-73.631,78.272-92.561c28.595-22.099,37.273-68.552,37.273-121.14C507.86,134.658,421.669,0,253.928,0z"/>
		<path style="fill:#E9E4D9;" d="M253.928,0v449.755h5.173c-0.391,1.299-0.673,2.645-0.673,4.073v43.984
			c0,7.837,6.363,14.188,14.204,14.188h34.049c7.841,0,14.18-6.351,14.18-14.188v-43.984c0-0.113-0.031-0.215-0.031-0.324
			c2.716,1.397,5.752,3.103,9.054,5.024v39.285c0,7.837,6.347,14.188,14.18,14.188h34.073c7.818,0,14.18-6.351,14.18-14.188v-9.211
			c0-45.185,53.77-73.631,78.272-92.561c28.595-22.099,37.273-68.552,37.273-121.14C507.86,134.658,421.669,0,253.928,0z"/>
		<polygon style="fill:#595758;" points="256.26,334.305 207.334,397.211 256.26,385.558 		"/>
		<polygon style="fill:#474141;" points="256.26,334.305 305.186,397.211 256.26,385.558 		"/>
		<path style="fill:#666564;" d="M86.195,293.541c0,34.092,27.644,61.732,61.736,61.732c34.096,0,61.728-27.64,61.728-61.732
			v-13.981c0-34.092-27.632-61.736-61.728-61.736c-34.092,0-61.736,27.644-61.736,61.736V293.541z"/>
		<path style="fill:#544E4E;" d="M302.854,293.541c0,34.092,27.64,61.732,61.736,61.732c34.088,0,61.743-27.64,61.743-61.732
			v-13.981c0-34.092-27.655-61.736-61.743-61.736c-34.096,0-61.736,27.644-61.736,61.736V293.541z"/>
		<path style="fill:#595758;" d="M106.177,313.524v-13.98c0-34.092,27.636-61.732,61.74-61.732c11.926,0,23.022,3.435,32.453,9.289
			c-10.893-17.549-30.269-29.276-52.439-29.276c-34.092,0-61.736,27.644-61.736,61.736v13.981c0,22.166,11.723,41.549,29.275,52.435
			C109.617,336.539,106.177,325.446,106.177,313.524z"/>
		<path style="fill:#474141;" d="M322.832,313.524v-13.98c0-34.092,27.641-61.732,61.744-61.732c11.91,0,23.023,3.435,32.453,9.296
			c-10.877-17.552-30.269-29.283-52.439-29.283c-34.096,0-61.736,27.644-61.736,61.736v13.981c0,22.17,11.73,41.553,29.283,52.439
			C326.268,336.543,322.832,325.446,322.832,313.524z"/>
	</g>
	<g>
		<path style="fill:#DED8E1;" d="M359.698,382.53c0,0,67.308,8.413,94.658-46.276C450.146,374.114,412.286,422.495,359.698,382.53z"
			/>
		<path style="fill:#E9E4D9;" d="M159.865,382.53c0,0-67.312,8.413-94.658-46.276C69.413,374.114,107.277,422.495,159.865,382.53z"
			/>
	</g>
</g>

<style>
  path { fill: #000; }
  @media (prefers-color-scheme: dark) {
      path { fill: #FFF; }
  }
</style>
</svg>